<?xml version="1.0" standalone="no"?>
<!DOCTYPE svg PUBLIC "-//W3C//DTD SVG 20010904//EN"
 "http://www.w3.org/TR/2001/REC-SVG-20010904/DTD/svg10.dtd">
<svg version="1.0" xmlns="http://www.w3.org/2000/svg"
 width="904.000000pt" height="1445.000000pt" viewBox="0 0 904.000000 1445.000000"
 preserveAspectRatio="xMidYMid meet">
<metadata>
Created by potrace 1.16, written by Peter Selinger 2001-2019
</metadata>
<g transform="translate(0.000000,1445.000000) scale(0.100000,-0.100000)"
fill="#000000" stroke="none">
<path d="M2538 14133 c1090 -2 2874 -2 3965 0 1090 1 198 2 -1983 2 -2181 0
-3073 -1 -1982 -2z"/>
<path d="M315 7225 c0 -3635 1 -5121 2 -3302 2 1820 2 4794 0 6610 -1 1816 -2
328 -2 -3308z"/>
<path d="M8725 7225 c0 -3635 1 -5121 2 -3302 2 1820 2 4794 0 6610 -1 1816
-2 328 -2 -3308z"/>
<path d="M857 13553 c-4 -3 -7 -136 -7 -295 l0 -288 935 0 935 0 -2 293 -3
292 -926 3 c-509 1 -929 -1 -932 -5z"/>
<path d="M850 12855 l0 -35 935 0 935 0 0 35 0 35 -935 0 -935 0 0 -35z"/>
<path d="M852 12708 l3 -33 930 0 930 0 3 33 3 32 -936 0 -936 0 3 -32z"/>
<path d="M852 12558 l3 -33 930 0 930 0 3 33 3 32 -936 0 -936 0 3 -32z"/>
<path d="M854 12287 c-2 -7 -3 -74 -2 -148 l3 -134 38 -3 c35 -3 37 -5 37 -37
0 -32 -2 -34 -37 -37 l-38 -3 -3 -72 -3 -73 41 0 40 0 0 -40 0 -40 -40 0 -40
0 2 -182 3 -183 38 -3 38 -3 -3 -72 -3 -72 -37 -3 c-36 -3 -38 -5 -38 -38 l0
-35 78 3 77 3 3 108 3 107 114 0 115 0 0 -34 c0 -33 -2 -35 -37 -38 l-38 -3 0
-70 0 -70 78 -3 77 -3 0 75 0 75 38 3 c34 3 37 6 37 33 l0 30 -77 3 -78 3 0
109 0 109 -37 3 c-36 3 -38 5 -41 41 -3 35 -5 37 -38 37 l-34 0 0 -59 c0 -80
-5 -91 -46 -91 l-33 0 -3 73 -3 72 -37 3 c-36 3 -38 5 -38 38 l0 34 74 0 c79
0 86 5 86 56 0 21 5 24 35 24 33 0 35 2 35 35 0 33 -2 35 -35 35 -30 0 -35 3
-35 24 0 44 -10 56 -46 56 -32 0 -34 2 -34 35 l0 35 74 0 75 0 3 -32 c3 -30 6
-33 41 -36 l37 -3 0 -75 0 -75 78 3 77 3 3 33 c3 29 6 32 37 32 31 0 34 -3 37
-32 3 -30 6 -33 41 -36 36 -3 37 -3 37 32 0 35 -1 36 -40 36 l-40 0 0 40 c0
39 -1 40 -35 40 -34 0 -35 -1 -35 -40 0 -40 0 -40 -39 -40 -39 0 -40 1 -43 38
-3 35 -5 37 -40 40 -36 3 -38 5 -38 38 l0 34 155 0 155 0 0 35 0 36 118 -3
117 -3 3 -107 3 -108 34 0 c32 0 34 2 37 38 3 35 5 37 41 40 35 3 37 5 37 38
0 35 1 35 38 32 l37 -3 3 -72 3 -73 74 0 75 0 0 -75 0 -75 -35 0 c-30 0 -35 3
-35 24 0 56 0 56 -161 56 l-149 0 0 -40 0 -39 -157 -3 -158 -3 -3 -72 -3 -73
-34 0 -34 0 -3 73 -3 72 -77 3 -78 3 0 -35 c0 -33 2 -35 38 -38 l37 -3 3 -108
3 -108 37 3 c34 3 37 6 40 36 3 29 6 32 38 32 l34 0 0 -150 0 -150 -35 0 c-33
0 -35 -2 -35 -35 l0 -35 115 0 115 0 0 34 c0 33 2 35 38 38 35 3 37 5 37 38 0
33 -2 35 -37 38 l-37 3 -3 72 -3 72 -37 3 c-36 3 -38 5 -38 38 0 33 -1 34 -40
34 -39 0 -40 1 -40 35 0 34 1 35 39 35 39 0 40 1 43 38 3 35 5 37 38 37 32 0
35 -3 40 -35 5 -32 8 -35 40 -35 33 0 35 2 38 38 3 35 5 37 37 37 34 0 45 13
45 51 0 15 7 19 35 19 l35 0 0 -110 0 -110 -75 0 -75 0 0 -35 c0 -33 2 -35 34
-35 36 0 46 -12 46 -56 0 -21 5 -24 35 -24 33 0 35 -2 35 -35 0 -33 -2 -35
-35 -35 -34 0 -35 -1 -35 -40 0 -39 1 -40 34 -40 32 0 35 -3 38 -32 l3 -33
153 -3 152 -3 0 36 0 35 -75 0 -75 0 0 114 0 115 38 3 37 3 0 65 0 65 -37 3
-38 3 0 75 0 74 40 0 c39 0 40 -1 40 -35 l0 -35 75 0 75 0 0 -39 c0 -39 -1
-40 -37 -43 l-38 -3 0 -140 0 -140 37 -3 c35 -3 37 -5 40 -40 3 -35 5 -37 38
-37 33 0 35 2 35 35 0 33 -2 35 -38 38 l-38 3 3 107 3 107 38 3 c36 3 37 3 37
-32 0 -33 2 -35 38 -38 l37 -3 3 -147 3 -148 34 0 35 0 0 134 c0 74 3 141 6
150 4 10 18 16 39 16 32 0 34 -2 37 -37 l3 -38 75 0 75 0 3 108 3 107 -41 0
c-39 0 -40 -1 -40 -36 0 -35 -1 -35 -37 -32 l-38 3 0 70 0 70 38 3 37 3 0 75
0 74 41 0 c39 0 40 1 37 33 -3 29 -6 32 -40 35 -37 3 -38 4 -38 43 l0 39 41 0
c39 0 40 1 37 33 -3 29 -6 32 -40 35 -36 3 -38 5 -38 37 0 32 2 34 38 37 l37
3 0 110 0 110 -928 3 c-756 2 -929 0 -933 -11z m306 -142 l0 -75 40 0 c39 0
40 -1 40 -35 0 -34 -1 -35 -40 -35 -39 0 -40 1 -40 35 0 33 -2 35 -35 35 -30
0 -35 3 -35 24 0 44 -10 56 -46 56 -32 0 -34 2 -34 35 l0 35 75 0 75 0 0 -75z
m1092 -107 c3 -30 6 -33 41 -36 37 -3 37 -3 37 33 0 36 0 36 38 33 34 -3 37
-6 37 -33 0 -27 -3 -30 -37 -33 -36 -3 -38 -5 -38 -38 l0 -34 -115 0 -115 0 0
35 c0 33 2 35 35 35 32 0 35 3 35 28 0 37 6 42 46 42 30 0 33 -3 36 -32z m308
-3 c0 -34 1 -35 40 -35 39 0 40 -1 40 -35 0 -34 -1 -35 -41 -35 l-40 0 3 -37
c3 -36 5 -38 41 -41 35 -3 37 -5 37 -37 0 -32 -2 -34 -37 -37 -36 -3 -38 -5
-41 -40 -3 -36 -5 -38 -37 -38 -34 0 -45 -13 -45 -51 0 -15 -7 -19 -35 -19
-34 0 -35 -1 -35 -40 0 -39 1 -40 35 -40 33 0 35 -2 35 -35 l0 -35 -75 0 -75
0 0 109 0 110 38 3 c35 3 37 5 40 41 3 35 5 37 38 37 32 0 34 2 34 35 0 33 -2
35 -35 35 -34 0 -35 1 -35 40 l0 40 75 0 75 0 0 35 c0 33 -2 35 -35 35 -28 0
-36 4 -41 24 -8 35 2 46 42 46 32 0 34 -2 34 -35z m-540 -554 l0 -70 -37 -3
c-36 -3 -38 -5 -41 -40 -3 -37 -4 -38 -43 -38 l-39 0 0 75 0 75 40 0 c39 0 40
1 40 35 0 34 1 35 40 35 l40 0 0 -69z"/>
<path d="M852 10998 l3 -33 110 -3 c116 -3 125 -6 125 -54 0 -25 4 -28 34 -28
33 0 35 2 38 38 3 35 5 37 41 40 l37 3 0 -75 0 -75 -37 -3 -38 -3 -3 -72 -3
-73 -34 0 -35 0 0 -59 c0 -80 -5 -91 -45 -91 -32 0 -34 2 -37 38 -3 35 -5 37
-41 40 l-38 3 3 72 3 72 70 3 c39 2 74 7 79 12 5 5 6 20 2 35 l-7 26 -112 -3
-112 -3 -3 -107 -3 -108 41 0 41 0 -3 -37 c-3 -36 -5 -38 -41 -41 -36 -3 -38
-5 -35 -35 3 -29 6 -32 41 -35 l37 -3 0 -75 0 -75 38 3 37 3 3 73 3 72 33 0
c41 0 46 -11 46 -91 l0 -59 35 0 c33 0 35 -2 35 -35 0 -33 -2 -35 -35 -35 -34
0 -35 -1 -35 -40 l0 -40 -120 0 -121 0 3 -72 3 -73 35 0 c33 0 35 2 38 38 l3
37 80 0 79 0 0 -40 c0 -39 1 -40 34 -40 32 0 35 -3 38 -32 l3 -33 78 -3 77 -3
0 36 c0 33 2 35 34 35 41 0 46 11 46 91 l0 59 189 0 c163 0 190 -2 195 -16 3
-9 6 -58 6 -110 l0 -94 35 0 34 0 3 108 3 107 78 3 77 3 0 -111 0 -110 -41 0
-40 0 3 -37 3 -38 69 -3 c75 -3 86 3 86 51 0 24 4 27 35 27 33 0 35 2 35 35 0
33 -2 35 -35 35 l-35 0 0 75 0 75 35 0 c30 0 35 3 35 24 0 43 10 56 45 56 32
0 34 -2 37 -37 3 -36 5 -38 38 -38 33 0 35 2 38 38 3 37 4 38 40 35 l37 -3 3
-72 3 -73 34 0 35 0 0 -102 c0 -57 4 -109 9 -116 5 -9 28 -12 77 -10 l69 3 3
147 3 147 37 3 c35 3 37 5 37 38 0 33 -2 35 -37 38 -36 3 -38 5 -38 38 0 35
-1 35 -37 32 l-38 -3 -3 -72 -3 -73 -33 0 c-41 0 -46 11 -46 91 l0 59 -35 0
c-33 0 -35 2 -35 35 0 33 2 35 35 35 30 0 35 3 35 24 0 51 7 56 86 56 l74 0 0
34 c0 33 2 35 38 38 35 3 37 5 37 38 l0 35 -192 3 -192 2 -3 73 -3 72 -69 3
c-75 3 -86 -3 -86 -50 l0 -28 -75 0 -75 0 0 -35 0 -34 -77 -3 -78 -3 -3 -72
-3 -73 -74 0 -75 0 0 -40 0 -40 -40 0 -40 0 0 -70 0 -70 -40 0 -40 0 0 71 0
70 -37 -3 -38 -3 -3 -67 -3 -68 -74 0 -74 0 -3 -37 c-3 -36 -5 -38 -40 -41
l-38 -3 0 -75 0 -74 -40 0 -40 0 0 40 c0 39 -1 40 -35 40 -33 0 -35 2 -35 35
0 33 2 35 35 35 34 0 35 1 35 40 l0 40 40 0 c39 0 40 1 40 34 0 33 2 35 38 38
34 3 37 6 40 35 3 30 1 32 -35 35 l-38 3 -3 112 -3 112 -37 3 c-34 3 -37 6
-40 36 l-3 32 120 0 121 0 0 -35 c0 -34 -1 -35 -40 -35 l-40 0 0 -76 0 -75 38
3 37 3 3 73 3 72 74 0 74 0 3 -37 c3 -36 5 -38 38 -38 33 0 35 2 38 38 3 37 4
38 40 35 35 -3 37 -5 40 -40 3 -36 5 -38 37 -38 40 0 45 11 45 91 l0 59 76 0
75 0 -3 38 c-3 34 -6 37 -38 42 -31 4 -35 9 -38 38 l-3 33 78 -3 78 -3 3 -33
c3 -32 5 -33 40 -30 34 3 37 6 40 36 l3 32 74 0 74 0 3 73 3 72 38 3 37 3 0
-75 0 -76 75 0 75 0 0 -59 c0 -90 1 -91 86 -91 l74 0 0 74 0 75 38 3 c34 3 37
6 40 36 l3 32 -80 0 -81 0 0 -35 c0 -34 -1 -35 -40 -35 -39 0 -40 1 -40 35 0
33 -2 35 -35 35 -34 0 -35 1 -35 40 l0 39 153 3 152 3 3 33 3 32 -936 0 -936
0 3 -32z m778 -113 l0 -75 80 0 80 0 0 75 0 75 35 0 35 0 0 -75 0 -75 -34 0
c-32 0 -35 -3 -38 -32 l-3 -33 -157 -3 -158 -3 0 -39 c0 -39 -1 -40 -35 -40
-34 0 -35 1 -35 40 0 39 1 40 35 40 l35 0 0 103 c0 57 3 107 7 110 3 4 39 7
80 7 l73 0 0 -75z m620 -334 c0 -39 -1 -40 -37 -43 -35 -3 -38 -6 -38 -33 l0
-30 78 -3 77 -3 0 36 c0 36 1 36 38 33 l37 -3 3 -72 3 -72 -118 -3 -118 -3 -3
-32 c-3 -30 -6 -33 -37 -33 -31 0 -34 -3 -37 -32 l-3 -33 -192 -3 -193 -2 0
70 0 71 38 -3 c34 -3 37 -6 40 -35 3 -30 6 -33 38 -33 l34 0 0 75 0 75 39 0
c39 0 40 -1 43 -37 3 -36 5 -38 41 -41 l37 -3 0 40 c0 39 1 40 38 43 l37 3 3
73 3 72 74 0 75 0 0 -39z"/>
<path d="M1476 10054 c-3 -9 -6 -42 -6 -75 l0 -59 -35 0 c-34 0 -35 -1 -35
-40 0 -39 1 -40 35 -40 34 0 35 1 35 40 0 40 0 40 39 40 39 0 40 -1 43 -37 3
-36 5 -38 38 -38 33 0 35 2 38 37 3 35 5 37 40 40 34 3 37 6 37 33 l0 30 -75
5 -75 5 -3 38 c-3 35 -5 37 -37 37 -21 0 -35 -6 -39 -16z"/>
<path d="M854 9756 c-3 -7 -4 -40 -2 -72 l3 -59 38 -3 37 -3 0 -75 0 -75 38 3
c35 3 37 5 40 40 3 35 5 37 40 40 34 3 37 6 40 35 l3 32 112 3 112 3 3 38 c3
35 5 37 37 37 41 0 45 -9 45 -115 0 -106 -4 -115 -45 -115 -32 0 -34 2 -37 38
-3 35 -5 37 -38 37 -33 0 -35 -2 -38 -37 l-3 -38 -75 0 c-66 0 -74 -2 -74 -19
0 -38 -11 -51 -46 -51 -33 0 -34 -1 -34 -39 0 -39 1 -40 38 -43 34 -3 37 -6
40 -35 l3 -33 -80 0 -80 0 -3 73 -3 72 -35 0 -35 0 0 -145 0 -145 38 -3 c35
-3 37 -5 37 -37 0 -32 -2 -34 -37 -37 -36 -3 -38 -5 -38 -38 0 -33 2 -35 38
-38 35 -3 37 -5 37 -37 0 -32 2 -34 38 -37 35 -3 37 -5 37 -38 0 -33 -2 -35
-37 -38 -36 -3 -38 -5 -38 -37 0 -32 -2 -34 -37 -37 l-38 -3 0 -70 0 -70 38
-3 37 -3 0 76 0 76 38 -3 37 -3 3 -72 3 -73 33 0 c35 0 46 13 46 51 0 15 7 19
35 19 l34 0 3 73 3 72 38 3 c36 3 37 3 37 -32 0 -35 1 -36 40 -36 39 0 40 1
40 35 0 34 1 35 40 35 l40 0 0 -75 0 -75 35 0 35 0 0 75 0 75 40 0 40 0 0 40
c0 39 -1 40 -34 40 -36 0 -46 -12 -46 -56 0 -21 -5 -24 -35 -24 l-35 0 0 75 0
75 35 0 35 0 0 75 0 75 40 0 40 0 0 75 0 75 40 0 41 0 -3 148 -3 147 -37 3
c-36 3 -38 5 -38 38 0 32 -2 34 -35 34 -40 0 -51 15 -41 55 6 25 9 26 79 23
l72 -3 3 -38 c3 -37 4 -38 40 -35 35 3 37 5 40 41 3 35 5 37 37 37 35 0 45
-13 45 -56 0 -21 5 -24 34 -24 33 0 35 2 38 38 l3 37 75 0 75 0 3 -38 c3 -37
4 -38 40 -35 35 3 37 5 40 41 3 35 5 37 37 37 32 0 34 -2 37 -37 l3 -38 78 -3
77 -3 0 -35 c0 -35 1 -35 38 -32 34 3 37 6 40 36 l3 32 75 0 74 0 0 -35 c0
-33 -2 -35 -34 -35 -36 0 -46 -12 -46 -56 0 -24 0 -24 -115 -24 l-115 0 0 40
c0 39 -1 40 -34 40 -38 0 -53 -22 -41 -60 5 -15 15 -20 41 -20 32 0 34 -2 34
-34 0 -33 -2 -35 -37 -38 l-38 -3 -3 -72 -3 -73 -34 0 -34 0 -3 108 -3 107
-37 3 c-35 3 -37 5 -40 40 l-3 37 -112 3 -113 3 0 -41 0 -40 75 0 75 0 0 -35
0 -35 -115 0 -115 0 0 -39 c0 -39 1 -40 38 -43 34 -3 37 -6 40 -35 3 -30 6
-33 38 -33 32 0 34 -2 34 -35 0 -33 -2 -35 -35 -35 l-34 0 -3 -72 -3 -73 -37
-3 c-37 -3 -38 -4 -38 -43 0 -39 0 -39 -39 -39 -39 0 -40 1 -43 38 -3 35 -5
37 -38 37 -33 0 -35 -2 -35 -35 0 -33 2 -35 38 -38 l37 -3 0 -110 0 -110 38 3
37 3 3 108 3 107 33 0 c43 0 46 -9 46 -126 l0 -94 74 0 75 0 3 -37 c3 -36 5
-38 38 -38 33 0 35 2 35 35 0 33 -2 35 -37 38 -36 3 -38 5 -38 37 0 32 -2 34
-37 37 l-38 3 0 145 0 145 38 3 37 3 0 -110 0 -111 40 0 40 0 0 -40 0 -40 75
0 c73 0 75 1 75 24 0 44 10 56 46 56 32 0 34 2 34 35 0 34 1 35 40 35 39 0 40
-1 40 -34 0 -33 2 -35 38 -38 35 -3 37 -5 40 -40 l3 -38 75 0 74 0 0 115 0
115 -34 0 c-36 0 -46 -12 -46 -56 0 -23 -2 -24 -74 -24 l-75 0 -3 38 c-3 35
-5 37 -40 40 -36 3 -38 5 -38 38 0 33 1 34 39 34 39 0 40 1 43 38 3 35 5 37
41 40 35 3 37 5 37 38 0 32 2 34 34 34 32 0 35 3 38 33 3 29 6 32 41 35 l37 3
0 -70 0 -71 -34 0 c-26 0 -36 -5 -41 -20 -12 -38 3 -60 41 -60 33 0 34 1 34
40 l0 40 40 0 40 0 0 -75 0 -75 40 0 41 0 -3 73 -3 72 -37 3 c-36 3 -38 5 -38
37 0 32 2 34 38 37 l37 3 3 107 3 107 -78 3 -78 3 -3 38 -3 37 81 0 81 0 -3
108 -3 107 -928 3 c-777 2 -928 0 -933 -12z m696 -397 l0 -110 -37 3 c-35 3
-38 6 -41 36 -3 29 -6 32 -38 32 -33 0 -34 1 -34 40 0 39 1 40 35 40 32 0 35
3 35 28 0 37 6 42 47 42 l33 0 0 -111z m-232 -36 l3 -72 37 -3 c34 -3 37 -6
40 -35 3 -30 6 -33 38 -33 33 0 34 -1 34 -40 l0 -40 -74 0 -75 0 -3 38 c-3 35
-5 37 -40 40 l-38 3 0 69 0 69 -37 3 c-31 2 -39 7 -41 26 -7 47 2 53 80 50
l73 -3 3 -72z m702 -113 l0 -110 40 0 40 0 0 40 c0 39 1 40 35 40 33 0 35 2
35 35 0 34 1 35 40 35 l40 0 0 -75 0 -75 -74 0 -75 0 -3 -32 c-3 -30 -6 -33
-40 -36 -37 -3 -38 -3 -38 32 0 35 -1 36 -40 36 l-40 0 0 110 0 110 40 0 40 0
0 -110z m-858 -142 l3 -33 110 -3 c116 -3 125 -6 125 -54 0 -26 -3 -28 -40
-28 -39 0 -40 -1 -40 -35 0 -34 -1 -35 -40 -35 -39 0 -40 1 -40 36 0 35 -1 35
-37 32 -35 -3 -38 -6 -41 -35 -3 -30 -6 -33 -38 -33 -27 0 -34 4 -34 19 0 38
-11 51 -46 51 -33 0 -34 1 -34 39 0 39 1 40 38 43 34 3 37 6 40 36 3 29 6 32
37 32 31 0 34 -3 37 -32z"/>
<path d="M2647 8874 c-4 -4 -7 -38 -7 -75 l0 -68 -37 -3 c-36 -3 -38 -5 -38
-38 0 -33 2 -35 35 -35 33 0 35 2 38 37 3 35 5 37 40 40 l37 3 0 70 0 70 -30
3 c-17 2 -34 0 -38 -4z"/>
<path d="M1552 8618 l3 -33 112 -3 c112 -3 112 -3 119 22 3 14 3 30 -1 35 -4
7 -51 11 -121 11 l-115 0 3 -32z"/>
<path d="M854 8496 c-3 -8 -4 -25 -2 -38 2 -19 10 -24 41 -26 l37 -3 0 -110 0
-109 74 0 c66 0 75 -2 81 -20 12 -38 -3 -60 -41 -60 -32 0 -34 -2 -34 -35 0
-33 2 -35 34 -35 35 0 46 -13 46 -51 0 -15 7 -19 35 -19 l34 0 3 -147 3 -148
75 -5 75 -5 0 -70 0 -70 -37 -3 -38 -3 0 -75 0 -75 -37 3 c-36 3 -38 5 -41 41
-3 35 -5 37 -38 37 -32 0 -34 2 -34 35 0 33 2 35 35 35 33 0 35 2 35 35 l0 35
-74 0 -75 0 -3 -32 c-3 -30 -6 -33 -40 -36 l-38 -3 0 75 0 75 38 3 c34 3 37 6
40 36 3 29 6 32 37 32 37 0 52 23 40 60 -6 18 -15 20 -81 20 l-74 0 0 34 c0
33 2 35 38 38 35 3 37 5 37 38 0 33 -2 35 -35 35 -33 0 -35 -2 -38 -37 -3 -35
-5 -37 -40 -40 -34 -3 -37 -6 -40 -35 -3 -32 -3 -33 38 -33 l41 0 -3 -37 c-3
-36 -5 -38 -40 -41 l-38 -3 0 -144 0 -144 38 -3 c35 -3 37 -5 40 -40 3 -35 5
-37 40 -40 34 -3 37 -6 40 -35 l3 -33 155 0 154 0 0 35 0 35 74 0 75 0 3 -32
3 -33 78 -3 77 -3 0 35 c0 33 2 35 38 38 35 3 37 5 40 41 l3 37 75 0 74 0 0
-40 c0 -39 -1 -40 -35 -40 -33 0 -35 -2 -35 -35 0 -33 2 -35 35 -35 33 0 35 2
35 35 0 34 1 35 41 35 l40 0 -3 38 c-3 35 -5 37 -40 40 l-38 3 0 70 0 69 40 0
c39 0 40 -1 40 -34 0 -33 2 -35 38 -38 l37 -3 3 -72 3 -72 37 -3 c34 -3 37 -6
40 -35 3 -30 6 -33 38 -33 l34 0 0 145 0 145 -35 0 c-30 0 -35 3 -35 24 0 44
-10 56 -46 56 -32 0 -34 2 -34 35 0 33 2 35 34 35 36 0 46 12 46 56 0 23 2 24
75 24 l75 0 0 -39 c0 -39 -1 -40 -37 -43 -35 -3 -38 -6 -38 -33 l0 -30 193 -3
192 -2 0 -110 0 -110 -75 0 -74 0 -3 68 -3 67 -37 3 -38 3 0 -70 0 -70 -37 -3
c-36 -3 -38 -5 -38 -38 0 -33 2 -35 38 -38 35 -3 37 -5 37 -38 0 -35 1 -35 37
-32 35 3 38 6 41 35 l3 32 152 3 152 3 0 145 0 145 -37 3 c-36 3 -38 5 -38 37
0 32 2 34 38 37 35 3 37 5 37 38 l0 35 -115 5 -115 5 -3 32 -3 32 118 3 118 3
0 70 0 70 -37 3 c-37 3 -38 3 -38 -32 l0 -36 -80 0 c-72 0 -80 2 -80 19 0 38
11 51 46 51 32 0 34 2 34 35 l0 34 78 3 77 3 0 185 0 185 -928 3 c-797 2 -928
0 -933 -12z m386 -101 c0 -34 1 -35 40 -35 39 0 40 1 40 35 l0 35 75 0 75 0 0
-35 c0 -33 -2 -35 -35 -35 -31 0 -35 -3 -35 -27 0 -48 -11 -54 -86 -51 l-69 3
-3 38 c-3 36 -4 37 -43 37 -39 0 -39 0 -39 -40 0 -39 -1 -40 -35 -40 -34 0
-35 1 -35 40 0 39 1 40 35 40 32 0 35 3 35 28 0 37 6 42 47 42 31 0 33 -2 33
-35z m1010 -76 l0 -110 -37 3 -38 3 -3 73 -3 72 -34 0 -35 0 0 -99 c0 -123 -3
-131 -46 -131 -32 0 -34 -2 -34 -35 l0 -35 74 0 75 0 3 33 c3 29 6 32 40 35
35 3 37 2 40 -30 l3 -33 75 -5 75 -5 3 -32 c3 -30 6 -33 38 -33 33 0 34 -1 34
-40 0 -39 -1 -40 -35 -40 l-34 0 -3 -72 -3 -73 -37 -3 c-36 -3 -37 -2 -40 35
-3 36 -5 38 -40 41 -36 3 -38 5 -38 38 l0 34 -75 0 -75 0 0 -35 c0 -34 -1 -35
-40 -35 l-40 0 0 -41 0 -40 -37 3 c-36 3 -38 5 -38 38 0 33 2 35 38 38 l37 3
0 110 0 109 -40 0 -40 0 0 -75 0 -75 -40 0 -40 0 0 -150 0 -150 -35 0 c-30 0
-35 3 -35 24 0 44 -10 56 -46 56 l-34 0 0 75 0 75 34 0 c35 0 46 13 46 51 0
17 -8 19 -80 19 l-80 0 0 -35 0 -36 -77 3 -78 3 -3 108 -3 107 -34 0 c-31 0
-34 -3 -37 -32 -3 -30 -6 -33 -40 -36 -35 -3 -37 -5 -40 -40 -3 -35 -5 -37
-40 -40 l-38 -3 0 75 0 75 -37 3 -38 3 0 70 0 70 37 3 c36 3 37 2 40 -35 3
-36 5 -38 38 -38 33 0 35 2 38 38 l3 37 74 0 74 0 3 33 c3 29 6 32 40 35 35 3
37 5 40 40 l3 37 75 0 75 0 3 -37 c3 -36 5 -38 37 -38 42 0 45 -9 45 -126 l0
-94 35 0 c33 0 35 2 35 34 0 33 2 35 38 38 l37 3 3 72 3 72 -38 3 c-36 3 -38
5 -38 38 0 33 2 35 38 38 35 3 37 5 37 38 l0 34 155 0 155 0 0 -111z m-620
-593 c0 -33 -2 -35 -37 -38 l-38 -3 -3 -108 -3 -108 -37 3 c-34 3 -37 6 -40
36 -3 29 -6 32 -38 32 -32 0 -34 2 -34 35 0 33 2 35 35 35 l35 0 0 68 c0 38 3
72 7 75 3 4 39 7 80 7 l73 0 0 -34z"/>
<path d="M1470 8135 l0 -75 40 0 c39 0 40 1 40 35 0 34 1 35 40 35 l40 0 0
-70 0 -70 80 0 80 0 0 -40 c0 -39 1 -40 35 -40 34 0 35 1 35 40 0 39 -1 40
-35 40 -33 0 -35 2 -35 35 0 34 -1 35 -40 35 -39 0 -40 1 -40 35 0 34 -1 35
-40 35 l-40 0 0 40 0 40 -80 0 -80 0 0 -75z"/>
<path d="M852 7168 l3 -73 192 -3 192 -2 3 37 c3 36 5 38 38 38 33 0 35 -2 38
-37 3 -35 5 -37 40 -40 34 -3 37 -6 37 -33 l0 -30 -77 -3 -78 -3 0 -39 0 -40
-75 0 c-67 0 -75 -2 -75 -19 0 -38 -11 -51 -46 -51 -32 0 -34 2 -34 34 0 33
-2 35 -37 38 -36 3 -38 5 -41 41 -3 37 -4 38 -40 35 l-37 -3 -3 -107 -3 -107
78 -3 78 -3 3 -37 3 -38 -40 0 -41 0 0 -109 0 -110 -37 -3 c-36 -3 -38 -5 -38
-38 0 -33 2 -35 38 -38 35 -3 37 -5 37 -37 0 -32 -2 -34 -37 -37 l-38 -3 -3
-107 -3 -107 38 -3 c36 -3 38 -5 41 -41 3 -37 4 -38 40 -35 l37 3 3 73 3 72
33 0 c41 0 46 -11 46 -91 l0 -59 75 0 75 0 0 39 c0 39 -1 40 -37 43 l-38 3 -3
73 -3 72 -34 0 c-33 0 -35 2 -35 35 0 33 2 35 35 35 33 0 35 2 35 35 0 33 -2
35 -35 35 -33 0 -35 -2 -35 -35 0 -34 -1 -35 -40 -35 l-40 0 0 75 0 75 34 0
c39 0 46 12 46 75 0 63 -7 75 -46 75 -32 0 -34 2 -34 35 l0 35 75 0 74 0 3
-72 3 -73 38 -3 37 -3 0 75 0 76 40 0 c39 0 40 -1 40 -35 0 -33 2 -35 34 -35
36 0 46 -12 46 -56 0 -21 -4 -24 -40 -24 l-39 0 -3 -72 -3 -73 -37 -3 -38 -3
0 -70 0 -69 40 0 c39 0 40 1 40 35 0 34 1 35 40 35 l40 0 0 -75 0 -75 35 0
c33 0 35 -2 35 -35 0 -33 -2 -35 -35 -35 -34 0 -35 -1 -35 -40 0 -39 1 -40 35
-40 34 0 35 1 35 40 0 40 0 40 39 40 39 0 40 -1 43 -37 3 -36 5 -38 38 -38
l35 0 3 73 3 73 37 -3 c34 -3 37 -6 40 -35 3 -31 6 -33 43 -33 39 0 39 0 39
-40 l0 -40 75 0 75 0 0 75 0 75 80 0 80 0 0 -75 0 -75 35 0 c30 0 35 3 35 24
0 43 10 56 45 56 32 0 34 -2 37 -37 3 -36 5 -38 38 -38 33 0 35 2 38 37 3 35
5 37 40 40 l37 3 3 73 3 72 34 0 c30 0 35 -3 35 -24 0 -44 10 -56 46 -56 l34
0 0 75 0 75 -34 0 c-34 0 -46 13 -46 50 0 17 9 20 78 22 l77 3 3 38 3 37 -74
0 c-80 0 -87 -5 -87 -56 0 -21 -5 -24 -35 -24 l-35 0 0 150 0 150 35 0 35 0 0
-59 c0 -80 5 -91 45 -91 32 0 34 2 37 38 3 35 5 37 40 40 36 3 37 2 40 -35 3
-36 5 -38 38 -38 l35 0 3 72 3 72 -78 3 -78 3 0 35 c0 33 2 35 38 38 35 3 37
5 37 38 l0 34 -74 0 c-77 0 -86 -5 -86 -51 0 -15 -7 -19 -35 -19 -34 0 -35 -1
-35 -40 l0 -40 -40 0 c-39 0 -40 -1 -40 -35 l0 -35 -80 0 -80 0 0 35 c0 33 -2
35 -35 35 -33 0 -35 -2 -35 -35 0 -34 -1 -35 -40 -35 -39 0 -40 1 -40 34 0 33
-2 35 -37 38 -36 3 -38 5 -38 38 0 33 2 35 38 38 35 3 37 5 37 37 0 32 2 34
38 37 34 3 37 6 40 36 3 29 6 32 37 32 l34 0 3 -67 3 -68 78 -3 77 -3 0 35 c0
33 2 35 38 38 34 3 37 6 40 36 3 29 6 32 38 32 33 0 34 1 34 40 0 39 -1 40
-35 40 -34 0 -35 -1 -35 -41 l0 -40 -37 3 -38 3 -3 113 -3 113 38 -3 c36 -3
38 -5 41 -40 l3 -38 74 0 74 0 3 -72 3 -73 35 0 c33 0 35 2 38 37 3 35 5 37
40 40 34 3 37 6 40 35 3 30 1 32 -35 35 -36 3 -38 5 -38 38 0 33 2 35 38 38
35 3 37 5 37 38 l0 34 -935 0 -936 0 3 -72z m1243 -21 c4 -13 5 -46 3 -73 -3
-49 -3 -49 -40 -52 -35 -3 -37 -5 -40 -40 -3 -35 -5 -37 -40 -40 -36 -3 -38
-5 -38 -38 l0 -34 -74 0 -75 0 -3 -32 c-3 -30 -6 -33 -40 -36 l-38 -3 0 70 0
71 115 0 115 0 0 39 c0 39 -1 40 -37 43 -35 3 -38 6 -38 33 l0 30 75 5 75 5 3
38 c3 35 5 37 37 37 28 0 36 -5 40 -23z m-543 -164 c3 -36 5 -38 41 -41 35 -3
37 -5 37 -37 0 -32 -2 -34 -37 -37 -35 -3 -38 -6 -41 -35 -3 -30 -6 -33 -37
-33 -35 0 -45 -13 -45 -56 0 -23 -2 -24 -75 -24 l-75 0 0 39 c0 39 1 40 38 43
l37 3 3 68 3 67 34 0 c33 0 35 2 35 33 0 42 5 47 46 47 31 0 33 -2 36 -37z
m156 -300 c3 -30 6 -33 37 -33 34 0 45 13 45 51 0 15 7 19 35 19 l35 0 0 -75
0 -75 -75 0 -75 0 0 -35 c0 -33 2 -35 34 -35 39 0 46 -12 46 -75 0 -63 -7 -75
-46 -75 -32 0 -34 2 -34 35 0 34 -1 35 -40 35 -39 0 -40 -1 -40 -35 0 -34 -1
-35 -40 -35 -39 0 -40 -1 -40 -34 0 -33 2 -35 38 -38 35 -3 37 -5 40 -41 l3
-38 -38 3 c-36 3 -38 5 -41 40 -3 35 -5 37 -40 40 -34 3 -37 6 -40 36 -3 29
-6 32 -38 32 l-34 0 0 110 0 110 75 0 75 0 0 -34 c0 -33 -2 -35 -37 -38 l-38
-3 -3 -72 -3 -73 41 0 c39 0 40 1 40 35 0 34 1 35 40 35 l40 0 0 75 0 75 40 0
40 0 0 40 0 40 -40 0 c-39 0 -40 1 -40 36 0 35 1 35 38 32 34 -3 37 -6 40 -35z
m462 -57 c0 -51 7 -56 86 -56 l74 0 0 -109 0 -110 38 -3 c34 -3 37 -6 40 -35
3 -32 2 -33 -37 -33 -40 0 -41 1 -41 36 0 35 -1 35 -37 32 -35 -3 -38 -6 -41
-35 -3 -30 -6 -33 -37 -33 -35 0 -45 -13 -45 -56 0 -21 -5 -24 -35 -24 l-35 0
0 75 0 75 35 0 35 0 0 75 0 75 -35 0 c-30 0 -35 -3 -35 -24 0 -43 -10 -56 -45
-56 -31 0 -34 -3 -37 -32 -3 -30 -6 -33 -40 -36 -36 -3 -38 -5 -38 -38 0 -33
-1 -34 -40 -34 l-41 0 3 108 3 107 38 3 c35 3 37 5 37 38 l0 34 74 0 c79 0 86
5 86 56 0 21 5 24 35 24 30 0 35 -3 35 -24z"/>
<path d="M854 5966 c-3 -8 -4 -25 -2 -38 2 -19 10 -24 41 -26 35 -3 37 -5 37
-38 0 -33 1 -34 40 -34 l40 0 0 -110 0 -110 75 0 75 0 0 -115 0 -115 -35 0
c-30 0 -35 3 -35 24 0 43 -10 56 -45 56 -31 0 -34 3 -37 33 -3 29 -6 32 -40
35 -35 3 -37 5 -40 40 -3 35 -5 37 -38 37 l-35 0 0 -110 0 -110 75 -5 75 -5 0
-70 0 -70 -78 -3 -77 -3 2 -217 3 -217 109 -3 c81 -2 112 1 118 10 9 15 11
169 2 192 -4 10 -18 16 -40 16 -33 0 -34 1 -34 40 l0 40 75 0 74 0 3 -72 3
-73 38 -3 37 -3 0 -75 0 -74 40 0 40 0 0 75 0 75 40 0 40 0 0 -40 c0 -39 1
-40 34 -40 32 0 35 -3 38 -32 l3 -33 115 0 115 0 3 33 c3 29 6 32 37 32 34 0
45 -13 45 -51 0 -17 8 -19 75 -19 l75 0 0 34 c0 33 -2 35 -37 38 l-38 3 -3
113 -3 112 -114 0 -115 0 0 34 c0 33 2 35 38 38 l37 3 3 73 3 72 39 0 c40 0
40 0 40 -40 0 -39 1 -40 34 -40 32 0 35 -3 38 -32 3 -30 6 -33 41 -36 35 -3
37 -5 37 -37 0 -32 2 -34 38 -37 l37 -3 3 -112 3 -113 33 0 c41 0 46 11 46 91
l0 59 75 0 75 0 0 110 0 110 40 0 c39 0 40 -1 40 -35 l0 -35 115 0 115 0 0
-34 c0 -33 2 -35 38 -38 34 -3 37 -6 42 -38 5 -32 8 -35 40 -35 l35 0 0 70 0
70 -77 3 -78 3 0 34 c0 32 2 34 38 37 35 3 37 5 40 40 3 35 5 37 40 40 34 3
37 6 40 35 3 30 1 32 -35 35 -36 3 -38 5 -41 41 l-3 37 -115 0 -114 0 0 35 0
35 74 0 75 0 3 38 c3 35 5 37 38 37 32 0 35 -3 40 -35 5 -32 8 -35 40 -35 l35
0 0 70 0 70 -75 5 -75 5 0 70 0 70 38 3 c36 3 37 3 37 -32 0 -35 1 -36 40 -36
l41 0 -3 108 -3 107 -928 3 c-797 2 -928 0 -933 -12z m386 -102 c0 -35 1 -35
38 -32 34 3 37 6 40 36 3 32 5 33 40 30 l37 -3 3 -107 3 -108 34 0 34 0 3 108
3 107 78 3 77 3 0 -146 0 -145 40 0 c39 0 40 1 40 35 0 33 2 35 34 35 43 0 46
8 46 126 l0 94 35 0 34 0 3 -107 3 -108 38 -3 37 -3 0 75 0 75 38 3 c34 3 37
6 40 36 3 32 5 33 40 30 l37 -3 3 -67 3 -68 34 0 c31 0 34 3 37 33 3 29 6 32
41 35 35 3 37 5 37 38 0 33 1 34 40 34 39 0 40 -1 40 -35 l0 -35 75 0 75 0 0
-110 0 -110 -35 0 c-34 0 -35 -1 -35 -40 l0 -40 -40 0 -40 0 0 -109 0 -110
-37 -3 c-36 -3 -38 -5 -41 -40 -3 -36 -5 -38 -37 -38 -40 0 -45 11 -45 91 l0
59 -35 0 c-30 0 -35 3 -35 24 0 43 -10 56 -45 56 -32 0 -34 -2 -37 -37 -3 -36
-5 -38 -40 -41 -36 -3 -38 -5 -38 -38 l0 -34 75 0 c82 0 93 -7 81 -55 -6 -25
-9 -26 -79 -23 l-72 3 -3 38 -3 37 -74 0 -74 0 -3 33 -3 32 -158 3 -158 3 3
-143 3 -143 38 -3 c36 -3 37 -4 37 -42 0 -38 -1 -39 -37 -42 -35 -3 -38 -6
-41 -35 -3 -30 -6 -33 -38 -33 l-34 0 0 59 c0 80 -5 91 -45 91 -32 0 -34 -2
-37 -37 -3 -36 -5 -38 -38 -38 -32 0 -35 3 -40 35 -5 32 -8 35 -42 38 l-38 3
0 70 0 69 40 0 c39 0 40 -1 40 -35 l0 -36 78 3 77 3 0 70 0 70 -37 3 c-36 3
-38 5 -38 37 0 32 -2 34 -37 37 l-38 3 -3 113 -3 112 -39 0 c-39 0 -40 1 -40
35 0 33 -2 35 -35 35 -34 0 -35 1 -35 40 l0 40 75 0 75 0 0 35 0 35 -115 0
-115 0 0 35 0 35 115 0 115 0 0 -36z"/>
<path d="M2250 5795 c0 -34 -1 -35 -40 -35 l-40 0 0 -40 c0 -39 -1 -40 -34
-40 -32 0 -35 -3 -38 -32 -3 -30 -6 -33 -40 -36 -35 -3 -37 -2 -40 30 -3 30
-6 33 -40 36 -37 3 -38 3 -38 -32 0 -35 1 -36 40 -36 l40 0 0 -40 0 -40 74 0
75 0 3 -32 c3 -30 6 -33 41 -36 36 -3 37 -3 37 32 0 35 1 36 40 36 l40 0 0 74
0 75 38 3 c35 3 37 5 37 38 0 33 -2 35 -37 38 -36 3 -38 5 -38 38 0 33 -1 34
-40 34 -39 0 -40 -1 -40 -35z"/>
<path d="M1240 5686 l0 -75 38 -3 37 -3 3 -112 3 -113 74 0 75 0 0 40 c0 39
-1 40 -35 40 -33 0 -35 2 -35 35 l0 34 113 3 112 3 3 38 3 37 -40 0 c-40 0
-41 1 -41 35 0 34 -1 35 -40 35 -39 0 -40 -1 -40 -35 0 -33 -2 -35 -35 -35
-33 0 -35 2 -35 35 0 34 -1 35 -39 35 -39 0 -40 1 -43 38 -3 35 -5 37 -40 40
l-38 3 0 -75z"/>
<path d="M1710 5535 l0 -75 74 0 75 0 3 -37 c3 -36 5 -38 41 -41 l37 -3 0 75
0 76 -75 0 c-73 0 -75 1 -75 24 0 44 -10 56 -46 56 l-34 0 0 -75z"/>
<path d="M2328 4938 l-3 -73 -37 -3 c-36 -3 -38 -5 -38 -38 l0 -35 78 3 77 3
0 105 0 105 -37 3 -37 3 -3 -73z"/>
<path d="M852 4678 c3 -30 6 -33 41 -36 l37 -3 0 -75 0 -74 -40 0 -41 0 3 -72
3 -73 75 0 75 0 3 148 3 147 74 0 74 0 3 -32 3 -33 78 -3 77 -3 0 36 c0 36 1
36 38 33 l37 -3 3 -147 3 -148 -40 0 c-39 0 -40 1 -43 38 -3 35 -5 37 -40 40
-36 3 -38 5 -38 38 0 35 -1 35 -37 32 -35 -3 -38 -6 -38 -33 0 -27 3 -30 38
-33 36 -3 37 -4 37 -43 l0 -39 -75 0 c-67 0 -75 -2 -75 -19 0 -38 -11 -51 -46
-51 -33 0 -34 -1 -34 -41 l0 -40 -37 3 c-36 3 -38 5 -41 41 -3 37 -4 38 -40
35 l-37 -3 -3 -107 -3 -108 41 0 40 0 0 -41 0 -40 38 3 c35 3 37 5 40 41 3 35
5 37 37 37 39 0 49 11 41 46 -5 20 -13 24 -41 24 -33 0 -35 2 -35 35 l0 35 74
0 75 0 3 -32 c3 -30 6 -33 41 -36 l37 -3 0 110 0 111 40 0 40 0 0 -74 0 -75
38 -3 37 -3 3 -67 3 -67 -78 -3 -78 -3 -3 -72 -3 -73 -39 0 c-39 0 -40 1 -40
35 0 33 -2 35 -35 35 -33 0 -35 -2 -35 -35 0 -33 2 -35 34 -35 33 0 35 -2 38
-37 3 -36 5 -38 41 -41 l37 -3 0 40 0 41 40 0 c39 0 40 1 40 34 0 33 2 35 38
38 35 3 37 5 40 41 3 35 5 37 38 37 l34 0 0 -75 0 -75 -35 0 c-30 0 -35 -3
-35 -24 0 -44 -10 -56 -46 -56 -32 0 -34 -2 -34 -34 0 -33 -2 -35 -37 -38
l-38 -3 -3 -107 -3 -108 41 0 c39 0 40 1 40 35 0 34 1 35 40 35 39 0 40 -1 40
-35 l0 -35 115 0 115 0 0 34 c0 33 2 35 38 38 34 3 37 6 37 33 0 27 -4 31 -35
35 -32 5 -35 8 -38 42 -3 36 -2 37 35 40 35 3 38 6 41 36 3 30 6 32 43 32 l39
0 0 -145 0 -145 75 0 75 0 0 35 0 36 78 -3 77 -3 3 -32 3 -33 115 0 114 0 0
34 c0 33 2 35 38 38 34 3 37 6 40 36 l3 32 75 0 74 0 0 -70 0 -70 40 0 40 0 0
110 0 110 40 0 c39 0 40 1 40 35 0 34 -1 35 -40 35 -39 0 -40 -1 -40 -35 l0
-35 -74 0 c-77 0 -86 5 -86 51 0 15 7 19 39 19 39 0 40 1 43 38 3 35 5 37 41
40 35 3 37 5 37 37 0 32 2 34 38 37 35 3 37 5 37 38 0 33 -2 35 -37 38 -36 3
-38 5 -38 37 0 32 2 34 38 37 l37 3 0 70 0 70 -77 3 -78 3 0 34 0 35 -75 0
-75 0 0 40 0 40 115 0 115 0 0 34 c0 33 -2 35 -37 38 -36 3 -38 5 -38 38 l0
35 78 3 77 3 0 69 0 70 -936 0 -935 0 3 -32z m778 -114 l0 -75 38 3 37 3 3 73
3 72 33 0 c35 0 46 -13 46 -51 0 -15 7 -19 35 -19 l35 0 0 -75 0 -75 -75 0
-75 0 0 -40 c0 -39 1 -40 34 -40 35 0 46 -13 46 -51 0 -15 7 -19 34 -19 32 0
35 3 38 33 3 29 6 32 41 35 36 3 37 3 37 -33 l0 -36 78 3 77 3 3 73 3 72 34 0
c31 0 34 3 37 33 3 29 6 32 40 35 l37 3 3 72 3 72 38 3 c37 3 37 3 37 -33 0
-36 0 -36 38 -33 34 3 37 6 40 36 3 29 6 32 38 32 l34 0 0 -75 0 -75 -35 0
c-33 0 -35 -2 -35 -35 0 -34 -1 -35 -40 -35 l-40 0 0 -40 0 -40 41 0 c39 0 40
-1 37 -32 -3 -30 -6 -33 -40 -36 -37 -3 -38 -3 -38 33 l0 36 -77 -3 -78 -3 0
-30 c0 -27 3 -30 37 -33 l37 -3 3 -72 3 -72 38 -3 37 -3 0 -75 0 -75 38 3 37
3 3 108 3 107 34 0 c30 0 35 3 35 24 0 44 10 56 46 56 l34 0 0 -75 0 -75 -34
0 c-22 0 -36 -6 -40 -16 -3 -9 -6 -76 -6 -150 l0 -134 -34 0 c-32 0 -35 -3
-38 -32 -3 -30 -6 -33 -40 -36 -35 -3 -37 -5 -40 -40 -3 -35 -5 -37 -38 -37
-33 0 -35 2 -38 38 -3 37 -4 38 -40 35 -35 -3 -37 -5 -40 -40 l-3 -38 -74 0
-74 0 -3 38 c-3 35 -5 37 -40 40 -36 3 -37 2 -40 -35 -3 -36 -5 -38 -38 -38
-33 0 -35 2 -35 35 0 33 2 35 38 38 35 3 37 5 37 38 l0 34 -75 0 c-73 0 -75 1
-75 24 0 54 -4 56 -126 56 l-114 0 0 -40 c0 -39 -1 -40 -34 -40 -36 0 -46 12
-46 56 0 21 4 24 40 24 l40 0 0 109 0 110 -37 3 -38 3 -3 73 -3 72 -34 0 c-33
0 -35 2 -35 35 l0 35 75 0 75 0 0 39 c0 39 -1 40 -37 43 -38 3 -38 3 -41 52
-5 79 2 96 43 96 32 0 35 3 35 28 0 37 6 42 47 42 l33 0 0 -76z"/>
<path d="M1557 4263 c-4 -3 -7 -37 -7 -75 l0 -68 40 0 c39 0 40 -1 40 -35 0
-34 1 -35 41 -35 39 0 40 1 37 33 -3 29 -6 32 -40 35 l-38 3 0 75 0 74 -33 0
c-19 0 -37 -3 -40 -7z"/>
<path d="M2020 4155 l0 -34 -77 -3 -78 -3 -3 -32 c-3 -30 -6 -33 -38 -33 -33
0 -34 -1 -34 -40 0 -39 1 -40 35 -40 34 0 35 1 35 40 l0 40 80 0 80 0 0 35 0
35 75 0 75 0 0 35 0 35 -75 0 -75 0 0 -35z"/>
<path d="M2176 4034 c-3 -9 -6 -27 -6 -40 0 -21 -5 -24 -35 -24 l-35 0 0 -75
0 -75 35 0 35 0 0 75 0 75 40 0 c39 0 40 -1 40 -35 0 -34 1 -35 40 -35 39 0
40 1 40 35 0 34 -1 35 -40 35 l-40 0 0 40 c0 39 -1 40 -34 40 -22 0 -36 -6
-40 -16z"/>
<path d="M857 3894 c-4 -4 -7 -88 -7 -186 l0 -178 40 0 c39 0 40 1 40 35 l0
35 74 0 c77 0 86 -5 86 -51 0 -15 7 -19 35 -19 l35 0 0 110 0 110 -35 0 c-30
0 -35 -3 -35 -24 0 -43 -10 -56 -45 -56 -32 0 -34 2 -37 38 -3 35 -5 37 -40
40 l-37 3 -3 72 -3 72 -30 3 c-17 2 -34 0 -38 -4z"/>
<path d="M857 3443 c-4 -3 -7 -53 -7 -109 l0 -103 38 -3 c35 -3 37 -5 37 -38
0 -33 -2 -35 -38 -38 l-38 -3 3 -72 3 -72 35 0 c33 0 35 2 38 38 l3 37 115 0
114 0 0 35 c0 33 -2 35 -35 35 -30 0 -35 3 -35 24 0 44 -10 56 -46 56 -32 0
-34 2 -34 35 l0 35 74 0 75 0 3 -32 c3 -30 6 -33 41 -36 l37 -3 0 -75 0 -75
78 3 77 3 3 73 3 72 34 0 c33 0 35 2 35 35 0 34 1 35 39 35 39 0 40 1 43 38 3
35 5 37 38 37 l35 0 3 -72 3 -72 -38 -3 c-36 -3 -38 -5 -41 -40 -3 -35 -5 -37
-40 -40 -34 -3 -37 -6 -37 -33 0 -27 3 -30 38 -33 36 -3 37 -4 37 -43 l0 -39
-155 0 -155 0 0 -35 0 -35 -74 0 -75 0 -3 33 c-3 29 -6 32 -40 35 -35 3 -37 2
-40 -30 -3 -30 -6 -33 -40 -36 -36 -3 -38 -5 -38 -37 0 -32 -2 -34 -37 -37
-36 -3 -38 -5 -38 -38 0 -33 2 -35 38 -38 35 -3 37 -5 37 -38 0 -35 1 -35 38
-32 34 3 37 6 40 36 l3 32 75 0 74 0 0 -35 c0 -33 -2 -35 -35 -35 -30 0 -35
-3 -35 -24 0 -43 -10 -56 -46 -56 l-33 0 -3 -72 -3 -73 -35 0 -35 0 -3 73 -3
72 -40 0 -39 0 2 -182 3 -183 37 -3 c36 -3 37 -2 40 35 3 36 5 38 41 41 35 3
37 5 37 38 0 32 2 34 34 34 41 0 46 -11 46 -91 l0 -59 75 0 75 0 0 74 0 75
-37 3 -38 3 0 70 0 70 118 3 117 3 0 -76 0 -75 35 0 35 0 0 75 0 75 40 0 39 0
3 -72 3 -73 38 -3 37 -3 0 -75 0 -75 38 3 37 3 0 70 0 70 -37 3 -38 3 0 110 0
109 40 0 40 0 0 -75 0 -75 75 0 75 0 0 -70 0 -70 -35 0 c-34 0 -35 -1 -35 -40
0 -39 1 -40 35 -40 34 0 35 1 35 40 l0 40 80 0 80 0 0 -40 c0 -39 1 -40 35
-40 40 0 51 15 41 55 -5 21 -12 25 -41 25 l-35 0 0 111 0 110 38 -3 c35 -3 37
-5 40 -40 3 -36 5 -38 37 -38 31 0 34 -3 37 -32 3 -30 6 -33 41 -36 35 -3 37
-5 37 -38 l0 -35 78 3 77 3 0 65 0 65 -37 3 c-37 3 -38 3 -38 -32 0 -35 -1
-36 -40 -36 l-40 0 0 109 0 110 38 3 37 3 3 73 3 72 39 0 40 0 0 -110 0 -110
34 0 c32 0 35 3 38 33 3 29 6 32 40 35 35 3 37 5 40 40 3 35 5 37 41 40 35 3
37 5 37 37 0 32 2 34 38 37 35 3 37 5 37 38 0 33 -2 35 -37 38 -36 3 -38 5
-38 37 0 32 2 34 38 37 34 3 37 6 40 36 3 31 2 32 -37 32 l-41 0 0 39 c0 39 1
40 38 43 l37 3 0 180 0 180 -926 3 c-509 1 -929 -1 -932 -5z m383 -103 l0 -40
80 0 80 0 0 40 c0 39 1 40 35 40 34 0 35 -1 35 -40 0 -39 -1 -40 -35 -40 -33
0 -35 -2 -35 -35 l0 -35 -80 0 -80 0 0 35 c0 34 -1 35 -40 35 -39 0 -40 1 -40
33 0 42 5 47 47 47 32 0 33 -1 33 -40z m1010 0 l0 -40 40 0 c39 0 40 -1 40
-35 l0 -35 75 0 75 0 0 -40 0 -40 -75 0 -75 0 0 -35 0 -35 75 0 c73 0 75 -1
75 -24 0 -51 7 -56 86 -56 l74 0 0 -35 0 -35 -115 0 -115 0 0 34 c0 33 -2 35
-37 38 -36 3 -38 5 -41 41 l-3 37 -80 0 -79 0 0 -40 c0 -39 -1 -40 -35 -40
-33 0 -35 -2 -35 -35 0 -33 2 -35 34 -35 32 0 35 -3 38 -32 3 -30 6 -33 41
-36 l37 -3 0 -115 0 -114 -75 0 -75 0 0 40 c0 39 1 40 35 40 33 0 35 2 35 35
0 33 -2 35 -35 35 -30 0 -35 3 -35 24 0 43 -10 56 -45 56 -31 0 -34 3 -37 33
l-3 32 -75 0 -75 0 -3 -32 c-3 -30 -6 -33 -38 -33 -29 0 -34 -3 -34 -24 0 -44
-10 -56 -46 -56 -32 0 -34 -2 -34 -35 0 -33 2 -35 34 -35 26 0 36 -5 41 -20
12 -38 -3 -60 -41 -60 -33 0 -34 1 -34 40 l0 40 -80 0 -80 0 0 35 c0 33 -2 35
-34 35 -26 0 -36 5 -41 20 -12 38 3 60 41 60 l34 0 0 70 0 70 40 0 40 0 0 40
0 40 -40 0 c-39 0 -40 1 -40 35 0 34 1 35 40 35 39 0 40 -1 40 -36 0 -35 1
-35 38 -32 34 3 37 6 40 36 3 30 6 32 43 32 39 0 39 0 39 40 l0 40 -40 0 c-39
0 -40 1 -40 35 0 33 2 35 34 35 35 0 46 -13 46 -51 0 -17 8 -19 75 -19 l75 0
0 35 c0 34 1 35 40 35 39 0 40 -1 40 -35 0 -34 -1 -35 -40 -35 -40 0 -40 0
-40 -40 l0 -39 78 -3 77 -3 3 -32 c3 -30 6 -33 38 -33 l34 0 0 59 c0 80 5 91
46 91 32 0 34 2 34 35 0 33 -2 35 -35 35 -40 0 -51 15 -41 55 5 21 12 25 41
25 34 0 35 -1 35 -40z m-855 -445 c0 -27 -3 -30 -37 -33 l-37 -3 -3 -112 -3
-112 -35 0 -35 0 -3 148 -3 148 78 -3 78 -3 0 -30z m1245 -75 l0 -40 -115 0
-115 0 0 40 0 40 115 0 115 0 0 -40z m-625 -150 c0 -33 -2 -35 -37 -38 l-37
-3 -3 -72 -3 -72 -37 -3 -38 -3 0 109 c0 60 3 112 7 116 4 4 39 5 78 4 l70 -3
0 -35z"/>
<path d="M2638 2558 l-3 -73 -37 -3 c-36 -3 -38 -5 -38 -38 0 -32 -2 -34 -35
-34 -28 0 -36 -4 -41 -24 -8 -35 2 -46 41 -46 32 0 34 -2 37 -37 l3 -38 75 0
75 0 3 183 2 182 -39 0 -40 0 -3 -72z"/>
<path d="M857 2183 c-4 -3 -7 -120 -7 -260 l0 -253 935 0 935 0 -2 258 -3 257
-926 3 c-509 1 -929 -1 -932 -5z"/>
<path d="M850 1555 l0 -35 935 0 935 0 0 35 0 35 -935 0 -935 0 0 -35z"/>
<path d="M852 1258 l3 -33 930 0 930 0 3 33 3 32 -936 0 -936 0 3 -32z"/>
<path d="M854 1136 c-3 -8 -4 -25 -2 -38 l3 -23 930 0 930 0 0 35 0 35 -928 3
c-797 2 -928 0 -933 -12z"/>
<path d="M852 888 l3 -33 930 0 930 0 3 33 3 32 -936 0 -936 0 3 -32z"/>
<path d="M2538 313 c1090 -2 2874 -2 3965 0 1090 1 198 2 -1983 2 -2181 0
-3073 -1 -1982 -2z"/>
</g>
</svg>
