<?xml version="1.0" standalone="no"?>
<!DOCTYPE svg PUBLIC "-//W3C//DTD SVG 20010904//EN"
 "http://www.w3.org/TR/2001/REC-SVG-20010904/DTD/svg10.dtd">
<svg version="1.0" xmlns="http://www.w3.org/2000/svg"
 width="904.000000pt" height="1445.000000pt" viewBox="0 0 904.000000 1445.000000"
 preserveAspectRatio="xMidYMid meet">
<metadata>
Created by potrace 1.16, written by Peter Selinger 2001-2019
</metadata>
<g transform="translate(0.000000,1445.000000) scale(0.100000,-0.100000)"
fill="#000000" stroke="none">
<path d="M2538 14133 c1090 -2 2874 -2 3965 0 1090 1 198 2 -1983 2 -2181 0
-3073 -1 -1982 -2z"/>
<path d="M315 7225 c0 -3635 1 -5121 2 -3302 2 1820 2 4794 0 6610 -1 1816 -2
328 -2 -3308z"/>
<path d="M8725 7225 c0 -3635 1 -5121 2 -3302 2 1820 2 4794 0 6610 -1 1816
-2 328 -2 -3308z"/>
<path d="M2538 313 c1090 -2 2874 -2 3965 0 1090 1 198 2 -1983 2 -2181 0
-3073 -1 -1982 -2z"/>
</g>
</svg>
